<?xml version="1.0" standalone="no"?> <!DOCTYPE svg PUBLIC "-//W3C//DTD SVG 1.0//EN" "http://www.w3.org/TR/2001/REC-SVG-20010904/DTD/svg10.dtd" > <svg xmlns="http://www.w3.org/2000/svg" width="100%" height="100%">
<defs >
<font id="alexastd2" horiz-adv-x="336" ><font-face
    font-family="Alexa Std"
    units-per-em="1000"
    panose-1="0 0 5 0 0 0 0 0 0 0"
    ascent="659"
    descent="-341"
    alphabetic="0" />
<missing-glyph horiz-adv-x="614" d="M114 0V700H614V0H114ZM364 395L534 650H194L364 395ZM394 350L564 95V605L394 350ZM194 50H534L364 305L194 50ZM164 605V95L334 350L164 605Z" />
<glyph unicode=" " glyph-name="space" horiz-adv-x="192" />
<glyph unicode="!" glyph-name="exclam" horiz-adv-x="272" d="M213 517Q230 533 261 541T313 547Q245 342 154 168Q145 157 128 150T99 142Q186 401 213 517ZM95 84Q129 84 129 49Q129 23 112 1T69 -22Q55 -22 46 -13T37 14Q37 42 54 63T95 84Z" />
<glyph unicode="&quot;" glyph-name="quotedbl" horiz-adv-x="317" d="M332 537Q375 565 427 565Q349 420 293 356Q276 346 261 346Q302 432 332 537ZM205 537Q248 565 300 565Q222 420 166 356Q149 346 134 346Q175 432 205 537Z" />
<glyph unicode="#" glyph-name="numbersign" horiz-adv-x="532" d="M289 339Q256 265 237 213Q257 213 297 213T347 212L399 339H289ZM239 339Q133 337 117 336Q117 342 133 366T158 398Q169 398 202 398T262 396Q306 507 306 519Q334 533 375 533Q344 471 312
395Q396 395 422 396Q467 508 467 519Q495 533 536 533Q520 504 473 397Q559 399 583 401Q583 394 568 369T547 339H449Q421 274 397 212Q499 216 511 217Q510 210 496 185T476 155H374L322 18Q295 4 253 4Q294 86 323 155H213Q205 133 187 86T161 18Q134 4 92
4Q135 91 161 155Q60 153 46 152Q47 159 62 183T85 214Q117 213 186 213Q197 243 239 339Z" />
<glyph unicode="$" glyph-name="dollar" horiz-adv-x="402" d="M306 510Q328 570 345 625Q371 639 412 639Q383 586 352 513Q432 513 478 487Q466 454 413 430Q381 469 338 481Q308 410 268 308Q333 268 360 241T387 183Q387 128 315 81T157 20Q131 -50 118 -94Q90
-111 47 -111L106 13Q45 13 11 27T-37 73Q-19 118 30 137Q38 111 62 87T123 53L208 254Q146 292 126 315T105 368Q105 418 166 457T306 510ZM297 485Q252 482 216 458T179 397Q179 380 188 367T209 346T237 327L297 485ZM167 48Q213 49 258 79T304 158Q304 193
240 236L167 48Z" />
<glyph unicode="%" glyph-name="percent" horiz-adv-x="613" d="M283 529Q356 529 356 460Q356 399 295 345T177 291Q147 291 127 309T107 366Q107 429 161 479T283 529ZM234 495Q202 495 184 468T165 406Q165 371 179 351T220 331Q254 331 272 357T290 420Q290
452 276 473T234 495ZM513 238Q586 238 586 169Q586 108 525 54T407 0Q377 0 357 18T337 75Q337 138 391 188T513 238ZM464 204Q432 204 414 177T395 115Q395 80 409 60T450 40Q484 40 502 66T520 129Q520 161 506 182T464 204ZM550 524Q575 533 628 533Q522 428
369 261T143 7Q113 -3 65 -3Q169 104 320 267T550 524Z" />
<glyph unicode="&amp;" glyph-name="ampersand" horiz-adv-x="659" d="M451 195Q344 195 298 169Q298 193 320 218T372 251Q398 259 511 259T675 274Q672 249 651 228Q618 195 519 195Q499 164 463 130Q378 48 310 14T173 -21Q113 -21 80 9T47 87Q47 150 92 202T214
285Q158 309 158 364Q158 425 251 485T426 545Q501 545 530 513Q505 476 454 460Q422 505 354 505Q315 505 280 471T245 394Q245 336 308 316Q310 315 310 310T307 304Q236 284 188 238T139 135Q139 90 166 66T248 41Q287 41 330 59T405 108Q445 148 451 195Z"
/>
<glyph unicode="&apos;" glyph-name="quotesingle" horiz-adv-x="190" d="M205 537Q248 565 300 565Q222 420 166 356Q149 346 134 346Q175 432 205 537Z" />
<glyph unicode="(" glyph-name="parenleft" horiz-adv-x="298" d="M418 650L436 640Q330 547 248 386T166 67Q166 19 174 -32T194 -105Q175 -156 128 -195Q91 -133 91 -7Q91 194 193 380T418 650Z" />
<glyph unicode=")" glyph-name="parenright" horiz-adv-x="298" d="M-51 -199L-69 -189Q37 -96 119 65T201 384Q201 432 193 482T173 555Q192 607 239 646Q276 564 276 458Q276 257 174 71T-51 -199Z" />
<glyph unicode="*" glyph-name="asterisk" horiz-adv-x="387" d="M258 381Q234 315 223 276Q209 270 195 270Q176 270 168 272Q200 340 222 397Q175 386 94 357Q94 384 105 408Q123 412 158 417T215 428Q148 498 129 515Q131 521 145 533Q156 544 173 551Q204
507 245 460Q268 522 283 571Q303 576 314 576Q324 577 337 575Q314 528 282 445Q312 452 406 480Q406 466 397 430Q388 428 351 423T288 413Q330 368 378 324Q374 314 362 301Q352 291 337 287Q302 330 258 381Z" />
<glyph unicode="+" glyph-name="plus" horiz-adv-x="478" d="M439 232H297Q252 120 241 69Q230 61 202 53T156 45L230 232Q111 232 60 229Q60 235 73 249T103 276H246Q308 432 311 440Q351 454 393 454Q362 389 314 276Q403 276 482 280Q483 272 468 257T439 232Z" />
<glyph unicode="," glyph-name="comma" horiz-adv-x="181" d="M49 79Q92 107 144 107Q66 -38 10 -102Q-7 -112 -22 -112Q19 -26 49 79Z" />
<glyph unicode="-" glyph-name="hyphen" horiz-adv-x="404" d="M94 215H219Q318 215 370 217Q370 211 357 194T333 167H211Q92 167 57 164Q57 171 68 186T94 215Z" />
<glyph unicode="." glyph-name="period" horiz-adv-x="181" d="M76 104Q110 104 110 69Q110 43 93 21T50 -2Q36 -2 27 7T18 34Q18 62 35 83T76 104Z" />
<glyph unicode="/" glyph-name="slash" horiz-adv-x="373" d="M442 611Q481 622 536 625Q426 496 269 285T17 -70Q-14 -88 -74 -88Q48 65 202 274T442 611Z" />
<glyph unicode="0" glyph-name="zero" horiz-adv-x="465" d="M145 -4Q101 -4 76 35T50 136Q50 334 212 462Q300 533 392 533Q441 533 469 500T498 400Q498 302 443 211T303 55Q225 -4 145 -4ZM215 53Q260 53 304 85Q345 115 378 186T412 352Q412 422 389 452T322
482Q239 482 183 393T127 189Q127 125 150 89T215 53Z" />
<glyph unicode="1" glyph-name="one" horiz-adv-x="280" d="M202 434Q168 426 85 392Q85 405 98 424L315 532Q293 439 233 277Q178 123 135 43Q104 14 40 -6Q81 69 143 243Q195 387 202 434Z" />
<glyph unicode="2" glyph-name="two" horiz-adv-x="423" d="M334 8Q307 4 277 4T195 4T115 5Q43 5 4 0Q4 21 21 33Q189 154 251 218Q336 304 336 377Q336 418 314 439T251 460Q181 460 103 392Q103 414 112 432Q138 464 190 496T306 528Q363 528 393 496T424 416Q424
329 321 229Q265 174 129 66Q142 66 175 65T233 63Q343 63 397 88Q397 69 379 46T334 8Z" />
<glyph unicode="3" glyph-name="three" horiz-adv-x="433" d="M403 199Q403 132 354 81Q271 -4 152 -4Q34 -4 17 83Q39 121 80 135Q87 85 113 55T183 25Q246 25 281 63T316 155Q316 204 289 232T211 261Q186 261 159 256Q159 272 175 286Q297 387 354 463Q318
466 280 466Q170 466 104 446Q104 458 127 483T168 518Q202 521 318 521Q440 521 464 520Q464 502 450 493Q351 387 253 307Q320 307 361 279T403 199Z" />
<glyph unicode="4" glyph-name="four" horiz-adv-x="480" d="M16 174Q20 193 45 229Q236 407 373 522Q416 537 480 537Q418 364 376 234Q465 237 513 249Q496 217 466 205Q422 187 363 185Q323 51 318 33Q297 16 266 5T211 -6Q271 148 282 183Q252 182 147 178T16
174ZM382 481Q230 364 109 229Q127 229 298 232L382 481Z" />
<glyph unicode="5" glyph-name="five" horiz-adv-x="431" d="M198 519Q437 519 492 527Q492 516 477 497T449 468Q414 460 244 457Q233 433 207 384T173 320Q209 329 254 329Q329 329 370 298T412 215Q412 118 331 57T154 -4Q49 -4 22 72Q24 88 50 110T87 133Q89
92 113 58T184 23Q245 23 285 68T325 182Q325 233 288 255T192 278Q139 278 94 261Q165 412 198 519Z" />
<glyph unicode="6" glyph-name="six" horiz-adv-x="462" d="M448 245Q448 151 365 74T196 -4Q124 -4 94 37T64 153Q64 227 95 305T178 436Q230 489 288 514T398 540Q440 540 473 524T521 484Q518 470 494 448T459 425Q446 514 379 514Q320 514 255 448Q181 372
161 262Q247 345 350 345Q448 345 448 245ZM368 201Q368 303 287 303Q236 303 193 258T149 149Q149 98 172 68T234 37Q290 37 329 79T368 201Z" />
<glyph unicode="7" glyph-name="seven" horiz-adv-x="379" d="M178 29Q132 -5 62 -5Q154 185 407 462Q371 464 320 464Q186 464 100 446Q102 458 124 482T169 520Q200 523 318 523Q360 524 427 522T502 520Q502 504 492 494Q380 383 288 251T178 29Z" />
<glyph unicode="8" glyph-name="eight" horiz-adv-x="429" d="M338 548Q398 548 429 523T460 453Q460 402 416 364T310 302Q416 260 416 194Q416 121 327 58T148 -6Q82 -6 46 24T10 101Q10 155 51 203T171 289Q118 319 118 379Q118 431 165 478Q193 506 239 527T338
548ZM302 519Q256 519 225 487T193 415Q193 351 283 316Q303 323 321 332T362 370T384 436Q384 474 363 496T302 519ZM193 273Q145 254 119 217T92 131Q92 85 123 60T200 35Q256 35 295 67T334 151Q334 192 303 218T193 273Z" />
<glyph unicode="9" glyph-name="nine" horiz-adv-x="446" d="M320 533Q462 533 462 379Q462 294 427 216T343 89Q249 -5 139 -5Q30 -5 10 78Q15 97 33 114T69 140Q90 25 169 25Q243 23 292 89T364 275Q275 202 201 202Q154 202 125 231Q95 261 95 316Q95 409 169
471T320 533ZM287 502Q238 502 205 458T172 357Q172 309 191 280T247 250Q302 250 340 288T378 380Q378 436 355 469T287 502Z" />
<glyph unicode=":" glyph-name="colon" horiz-adv-x="228" d="M180 331Q214 331 214 296Q214 270 197 248T154 225Q140 225 131 234T122 261Q122 289 139 310T180 331ZM102 106Q136 106 136 71Q136 45 119 23T76 0Q62 0 53 9T44 36Q44 64 61 85T102 106Z" />
<glyph unicode=";" glyph-name="semicolon" horiz-adv-x="208" d="M166 321Q200 321 200 286Q200 260 183 238T140 215Q126 215 117 224T108 251Q108 279 125 300T166 321ZM49 79Q92 107 144 107Q66 -38 10 -102Q-7 -112 -22 -112Q19 -26 49 79Z" />
<glyph unicode="&lt;" glyph-name="less" horiz-adv-x="478" d="M83 245Q282 344 400 427Q415 422 451 406Q285 323 179 256Q318 173 435 124Q411 101 369 70Q203 179 83 229Q79 231 79 237T83 245Z" />
<glyph unicode="=" glyph-name="equal" horiz-adv-x="478" d="M144 333H300Q429 333 492 337Q493 330 478 312T451 286H296Q147 286 103 283Q103 290 116 306T144 333ZM90 210H246Q375 210 438 214Q438 206 423 188T396 163H241Q92 163 48 160Q48 167 61 183T90 210Z" />
<glyph unicode="&gt;" glyph-name="greater" horiz-adv-x="478" d="M460 253Q261 154 143 71Q115 79 92 92Q258 175 364 242Q225 325 108 374Q132 397 174 428Q340 319 460 269Q464 267 464 261T460 253Z" />
<glyph unicode="?" glyph-name="question" horiz-adv-x="356" d="M156 84Q190 84 190 49Q190 23 173 1T130 -22Q116 -22 107 -13T98 14Q98 42 115 63T156 84ZM408 450Q408 413 382 382T297 317Q229 278 206 261T183 232Q183 207 262 183Q262 174 238 153T195 131Q164
140 140 159T115 205Q115 227 144 250T243 316Q288 343 308 364T329 419Q329 448 303 468T232 489Q166 489 116 451Q116 477 127 492Q150 512 193 530T281 549Q340 549 374 522T408 450Z" />
<glyph unicode="@" glyph-name="at" horiz-adv-x="636" d="M327 371Q287 315 287 252Q287 211 301 211Q316 211 346 241T412 331Q428 356 443 402Q421 407 398 407Q373 407 358 400T327 371ZM398 196Q398 232 414 298Q369 234 323 189T246 144Q225 144 225 197Q225
242 243 288T292 366Q333 407 373 423T476 439Q492 439 512 437Q459 292 459 229Q459 182 486 182Q509 182 534 205Q589 260 589 359Q589 431 549 471T426 511Q317 511 245 439Q199 393 177 342T155 217Q155 138 197 96T314 54Q366 54 423 75T523 132Q523 111 516
103Q492 74 427 36T285 -3Q183 -3 131 49Q80 100 80 184Q80 316 178 414Q242 478 321 511T471 545Q562 545 611 508T660 400Q659 298 587 226Q551 190 507 165T435 140Q415 140 407 153T398 196Z" />
<glyph unicode="A" glyph-name="A" horiz-adv-x="572" d="M436 461Q320 362 213 216Q389 220 421 226Q430 315 436 461ZM179 170Q113 81 82 18Q20 -13 -20 -13Q20 45 120 166Q44 160 4 158Q4 163 27 182T65 210Q80 211 110 212T162 216L418 502Q433 519 435 532Q483
556 531 556Q528 512 521 395T508 186T495 41Q480 22 445 2T390 -19Q410 86 420 211Q375 191 371 190Q329 180 179 170Z" />
<glyph unicode="B" glyph-name="B" horiz-adv-x="551" d="M196 242Q150 122 137 62Q135 52 140 47T160 38Q184 32 234 32Q337 32 399 93Q429 123 429 161Q429 195 378 219T241 243Q235 243 219 243T196 242ZM120 480Q123 493 145 511T183 536Q225 543 286 543Q545
543 545 457Q545 425 511 392Q476 358 427 327T340 286Q526 276 526 197Q526 160 492 126Q428 62 330 24T107 -15Q74 -15 29 -6Q42 56 94 193T189 421Q210 434 242 444T294 455Q258 389 213 287Q346 287 418 359Q448 389 448 423Q448 488 237 488Q153 488 120 480Z"
/>
<glyph unicode="C" glyph-name="C" horiz-adv-x="480" d="M135 -21Q94 -21 70 7T46 92Q46 187 82 270T180 413Q317 549 506 549Q552 549 583 538Q573 495 519 467Q455 500 396 500Q314 500 248 434Q196 382 168 297T140 147Q140 95 164 72T240 49Q291 49 353 80T465
155Q466 149 463 134T457 113Q391 62 296 21T135 -21Z" />
<glyph unicode="D" glyph-name="D" horiz-adv-x="604" d="M38 -5Q49 53 98 187T190 410Q209 425 241 435T293 446Q257 382 211 263Q158 125 146 64Q145 56 149 52T167 44Q191 36 230 36Q360 36 442 120T524 317Q524 384 471 425Q395 483 235 481Q159 481 99 475Q102
484 130 505T178 536Q223 541 278 541Q439 541 526 491T614 347Q614 282 577 218T476 102T318 20T120 -12Q59 -12 38 -5Z" />
<glyph unicode="E" glyph-name="E" horiz-adv-x="469" d="M285 444Q237 350 209 281Q368 285 456 294Q456 286 437 273T403 254Q359 243 190 231Q150 126 135 59Q132 44 150 44Q351 44 442 67Q442 59 430 45T403 24Q366 9 269 -2T59 -14Q42 -14 35 -10T30 4Q48
82 97 204T186 410Q205 424 234 434T285 444ZM135 460Q138 474 161 495T208 525Q286 531 433 535T585 539Q585 533 564 517T523 495Q499 488 431 484T296 478Q220 474 135 460Z" />
<glyph unicode="F" glyph-name="F" horiz-adv-x="469" d="M286 444Q256 385 207 266Q414 275 460 280Q460 274 447 262T420 243Q367 226 186 214Q144 111 128 29Q118 17 77 -2T25 -21Q52 109 187 407Q234 439 286 444ZM262 474Q160 468 119 457Q119 468 152 494T205
526Q250 531 397 535T604 546Q604 539 577 520T528 494Q493 487 262 474Z" />
<glyph unicode="G" glyph-name="G" horiz-adv-x="560" d="M514 554Q573 554 601 538Q601 527 580 504T536 470Q489 504 416 504Q336 504 275 443Q206 375 172 288T137 136Q137 48 192 48Q241 48 312 94T422 199Q432 215 448 248Q468 260 498 269T550 279Q523 229
494 146T458 25Q443 10 410 -2T355 -14Q367 40 403 130Q223 -18 121 -18Q40 -18 40 90Q40 179 78 260T177 401Q330 554 514 554Z" />
<glyph unicode="H" glyph-name="H" horiz-adv-x="643" d="M429 252Q365 242 207 233Q159 94 146 29Q134 17 96 1T42 -14Q57 68 119 228Q74 226 33 221Q39 234 57 252T90 276Q117 278 138 280Q163 346 235 512Q252 521 285 529T337 538Q268 396 226 283Q280 286
351 288T463 292T522 297Q593 480 607 512Q624 521 657 530T705 539Q659 447 603 279Q557 139 541 35Q527 20 492 6T439 -9Q459 120 517 282Q484 262 429 252Z" />
<glyph unicode="I" glyph-name="I" horiz-adv-x="252" d="M128 31Q64 -10 26 -9Q36 47 118 270Q132 308 171 402T213 505Q267 534 317 534Q256 423 204 278Q143 112 128 31Z" />
<glyph unicode="J" glyph-name="J" horiz-adv-x="255" d="M-115 -112Q-128 -112 -139 -106T-152 -92Q-45 -77 5 -15T118 228L212 508Q260 539 316 539Q301 506 285 463T244 347T211 251Q186 179 170 137T128 45T77 -31Q-3 -114 -115 -112Z" />
<glyph unicode="K" glyph-name="K" horiz-adv-x="611" d="M134 305Q188 436 227 504Q242 516 280 527T338 538Q265 415 218 297Q160 150 129 31Q114 19 79 5T25 -10Q70 147 134 305ZM542 53Q579 53 612 72Q612 52 600 45Q527 0 448 0Q409 0 366 43Q326 83 226
277Q454 383 579 524Q621 543 689 543Q621 476 535 420T326 295Q395 152 453 94Q476 71 494 62T542 53Z" />
<glyph unicode="L" glyph-name="L" horiz-adv-x="447" d="M12 -10Q85 143 130 265Q197 447 208 502Q256 533 312 533L213 266L130 51Q164 53 188 53Q211 53 261 51T336 49Q400 49 431 64Q428 53 408 29T374 2Q352 -3 324 -3Q302 -3 247 0T152 3Q77 3 12 -10Z" />
<glyph unicode="M" glyph-name="M" horiz-adv-x="789" d="M231 499Q247 512 279 527T329 543Q329 490 338 415T361 256T379 141Q451 220 549 337T681 506Q698 517 729 527T780 537Q754 444 731 293T702 41Q691 24 656 5T604 -15Q610 79 631 219T669 420Q604 353
525 258T400 90Q387 68 385 52Q374 41 346 29T303 14Q301 77 276 236T248 418Q195 319 146 204T90 23Q45 -13 -2 -13Q25 48 113 230T224 461Q233 481 231 499Z" />
<glyph unicode="N" glyph-name="N" horiz-adv-x="643" d="M576 237Q516 82 514 28Q503 15 474 0T430 -16Q392 88 322 223T228 415Q201 359 180 305Q122 154 103 23Q84 9 58 0T14 -10Q37 63 93 196T165 374Q188 436 191 497Q245 537 283 546Q308 461 340 389T416
235T482 106L626 509Q643 523 672 533T724 543Q646 420 576 237Z" />
<glyph unicode="O" glyph-name="O" horiz-adv-x="574" d="M350 516Q306 489 274 457Q220 403 187 323T153 152Q153 101 177 73T241 44Q327 44 404 122Q447 166 477 237T508 385Q508 446 480 480T399 514Q399 526 435 539T499 553Q601 553 601 426Q601 344 555
260T443 116T303 18T173 -20Q110 -20 83 21T56 123Q56 202 90 282T178 416Q258 497 339 527Q343 528 347 524T350 516Z" />
<glyph unicode="P" glyph-name="P" horiz-adv-x="503" d="M289 444Q263 398 205 250Q223 241 272 241Q316 241 364 259T442 308Q475 343 475 376Q475 400 455 420Q395 480 211 480Q167 480 107 474Q107 483 135 505T186 536Q231 541 274 541Q422 541 493 507T564
419Q564 365 494 310T334 222T183 192Q161 126 137 32Q121 18 90 4T37 -11L65 80Q93 171 113 224Q160 350 193 412Q238 444 289 444Z" />
<glyph unicode="Q" glyph-name="Q" horiz-adv-x="582" d="M336 44Q234 -20 156 -20Q102 -20 77 19T52 121Q52 197 86 276T174 409Q255 490 333 515Q335 516 339 512T342 506Q310 486 268 446Q215 393 181 315T146 147Q146 97 169 71T233 44Q275 44 312 61Q305
66 293 73T276 83Q306 108 360 122Q374 116 385 109Q507 226 507 377Q507 436 478 470T396 504Q396 516 433 529T504 542Q550 542 574 505T598 408Q598 285 470 152Q449 131 407 93Q516 7 586 -12Q586 -20 555 -29T498 -38Q459 -38 420 -15Q409 -9 336 44Z" />
<glyph unicode="R" glyph-name="R" horiz-adv-x="549" d="M187 422Q226 447 290 456Q177 250 132 21Q110 8 77 -4T29 -17Q51 73 101 210T187 422ZM118 484Q124 497 145 515T189 541Q220 546 280 546Q435 546 505 515T575 437Q575 387 512 338T326 246Q399 135
449 85Q472 62 491 52T541 42Q536 25 501 7T438 -12Q406 -12 371 24Q348 48 293 130T218 235Q257 268 299 272Q303 271 314 271Q338 271 378 291T448 341Q474 367 474 400Q474 437 415 463T222 489Q165 489 118 484Z" />
<glyph unicode="S" glyph-name="S" horiz-adv-x="433" d="M418 547Q459 547 496 534Q492 519 471 502T426 476Q414 488 386 497T332 506Q270 504 235 469Q223 457 215 438T207 407Q207 388 216 372T242 343T277 319T317 295Q347 278 364 266T395 232T410 187Q410
170 399 147T372 107Q316 51 242 18T99 -15Q14 -15 -11 27Q-7 50 10 74T52 113Q63 76 94 53T166 29Q196 29 230 42T286 76Q316 106 316 141Q316 174 293 197T226 247Q196 265 185 272T153 297T124 331T116 370Q116 414 149 446Q194 491 266 519T418 547Z" />
<glyph unicode="T" glyph-name="T" horiz-adv-x="455" d="M314 479Q200 473 115 457Q116 469 142 492T186 523Q284 530 425 531T609 535Q602 522 581 507T543 487Q522 484 470 483T399 481Q360 388 312 251Q261 112 241 35Q216 19 179 5T124 -9Q166 89 228 251L314 479Z" />
<glyph unicode="U" glyph-name="U" horiz-adv-x="611" d="M167 -19Q122 -19 100 12T78 92Q78 213 189 458Q196 474 201 488Q219 502 256 515T311 529Q170 264 170 131Q170 84 189 64T254 44Q284 44 327 66T404 123Q466 185 516 300T585 495Q604 509 639 522T695
535Q594 269 472 147Q306 -19 167 -19Z" />
<glyph unicode="V" glyph-name="V" horiz-adv-x="539" d="M157 489Q170 505 204 522T255 539Q235 301 207 100Q227 120 278 167T378 263T476 371Q523 427 542 513Q603 546 656 546Q641 496 585 431T339 184Q293 140 248 87T193 12Q190 5 153 -10T96 -26Q122 74
140 218T157 489Z" />
<glyph unicode="W" glyph-name="W" horiz-adv-x="861" d="M495 372L251 118Q206 70 185 24Q160 8 128 -4T82 -17Q91 25 106 120T140 303T186 482Q204 495 237 508T289 522Q225 338 189 99Q200 111 248 159T336 250T418 340Q491 423 514 492Q529 504 562 516T615
529Q588 442 575 313Q571 273 564 107Q599 139 666 209T792 360Q840 423 852 504Q913 537 966 537Q945 481 895 417T682 181Q581 75 563 26Q546 14 514 1T470 -12Q477 61 482 190T495 372Z" />
<glyph unicode="X" glyph-name="X" horiz-adv-x="533" d="M273 272Q254 316 203 395T131 493Q173 529 220 536Q245 511 336 332Q495 480 557 524Q598 524 628 513Q579 482 500 421T354 298Q420 167 484 17Q437 -16 388 -17Q337 133 289 235Q176 122 91 -7Q50 -23
-7 -23Q26 18 112 109T273 272Z" />
<glyph unicode="Y" glyph-name="Y" horiz-adv-x="538" d="M372 234Q364 203 342 125T314 22Q300 8 266 -3T206 -14Q275 162 289 220Q291 259 241 357T134 506Q151 518 181 527T231 536Q268 497 306 424T362 276Q409 340 478 418T588 533Q648 533 668 529Q596 482
514 401T372 234Z" />
<glyph unicode="Z" glyph-name="Z" horiz-adv-x="520" d="M108 443Q108 456 132 480T181 521Q200 530 286 530Q304 530 336 530T383 529Q445 527 464 527Q538 527 564 538Q564 519 548 499Q455 395 330 273T120 78H177Q202 78 249 77T319 76Q459 76 511 102Q508
87 482 54T436 15Q390 3 318 3Q282 3 206 5T104 8Q36 8 -8 -3Q-6 19 13 35Q146 146 260 268T424 466Q408 466 354 467T278 468Q164 468 108 443Z" />
<glyph unicode="[" glyph-name="bracketleft" horiz-adv-x="320" d="M287 635H455Q445 618 430 608L347 602Q309 508 210 226T79 -155Q154 -160 186 -161Q175 -177 160 -188H-3Q44 -70 144 217T287 635Z" />
<glyph unicode="\" glyph-name="backslash" horiz-adv-x="423" d="M426 -89Q379 -89 349 -79Q235 269 77 630Q132 628 152 620Q201 467 279 264T426 -89Z" />
<glyph unicode="]" glyph-name="bracketright" horiz-adv-x="320" d="M85 -188H-83Q-73 -171 -58 -161L25 -155Q63 -61 162 221T293 602Q218 607 186 608Q197 624 212 635H375Q328 517 228 230T85 -188Z" />
<glyph unicode="^" glyph-name="asciicircum" horiz-adv-x="478" d="M100 351Q265 541 332 641Q359 542 469 359Q450 341 406 323Q332 464 300 541Q287 526 147 334Q119 338 100 351Z" />
<glyph unicode="_" glyph-name="underscore" horiz-adv-x="500" d="M500 -75V-125H0V-75H500Z" />
<glyph unicode="`" glyph-name="grave" horiz-adv-x="300" d="M333 416Q322 410 288 410Q271 425 239 464T190 530Q234 542 264 547Q294 464 333 416Z" />
<glyph unicode="a" glyph-name="a" horiz-adv-x="421" d="M119 251Q183 315 242 337T376 359Q404 359 436 353Q361 168 361 70L364 52Q347 31 318 16T272 0Q272 87 304 194Q134 -4 53 -4Q36 -4 27 9T18 39Q18 83 45 143T119 251ZM183 281Q154 252 133 197T111
106Q111 73 124 73Q163 73 222 132Q293 204 337 304Q311 318 272 318Q220 318 183 281Z" />
<glyph unicode="b" glyph-name="b" horiz-adv-x="426" d="M397 362Q432 362 432 310Q432 251 404 185T335 78Q285 30 238 9T120 -12Q88 -12 61 -2T22 22Q44 86 78 192T122 325Q198 545 246 630Q283 659 326 659Q277 573 230 430Q217 391 160 211Q205 260 286 311T397
362ZM262 52Q293 83 318 150T343 263Q343 279 337 289T322 300Q282 300 204 222Q179 197 161 164T135 110T115 50Q142 14 182 14Q224 14 262 52Z" />
<glyph unicode="c" glyph-name="c" horiz-adv-x="334" d="M110 115Q110 76 122 64T160 52Q187 52 231 79T321 151Q321 129 317 121Q266 70 190 27T63 -16Q24 -16 24 47Q24 107 50 164T118 263Q166 311 227 339T337 368Q365 368 379 361Q365 328 321 294Q286 309
245 309Q196 309 170 282Q110 216 110 115Z" />
<glyph unicode="d" glyph-name="d" horiz-adv-x="437" d="M183 283Q152 252 131 204T110 110Q110 78 128 78Q168 78 225 137Q276 188 301 225T345 308Q318 319 273 319Q219 319 183 283ZM438 370Q381 207 381 61Q381 48 382 43Q365 23 337 9T291 -6Q291 106 321
210Q263 142 175 67T49 -8Q20 -8 20 45Q20 91 49 155T127 262Q193 322 245 341T366 360Q425 525 480 630Q515 659 556 659Q508 572 438 370Z" />
<glyph unicode="e" glyph-name="e" horiz-adv-x="324" d="M124 177Q116 147 116 116Q116 86 128 74Q141 60 169 60Q226 60 321 155Q321 131 319 125Q269 75 198 36T75 -3Q59 -3 48 12T36 58Q36 191 120 273Q164 317 216 339T303 361Q321 361 331 353T341 335Q341
302 313 276Q236 199 124 177ZM250 251Q268 269 268 289Q268 321 232 321Q204 321 182 300Q148 266 130 204Q148 204 189 218T250 251Z" />
<glyph unicode="f" glyph-name="f" horiz-adv-x="256" d="M136 339Q192 511 271 590Q363 681 467 681Q489 681 504 673T520 652Q520 634 493 613T455 591Q455 616 439 630T400 645Q367 645 337 615Q282 560 213 338Q313 340 379 350Q360 325 328 312Q283 294 199
291Q92 -70 23 -216Q10 -244 -34 -274T-105 -305Q-70 -267 -42 -206T27 -22Q62 84 121 289Q98 288 60 285Q76 307 136 339Z" />
<glyph unicode="g" glyph-name="g" horiz-adv-x="408" d="M377 361Q398 361 424 358Q389 272 363 180Q318 26 284 -48T200 -171Q88 -282 -44 -282Q-132 -282 -161 -223Q-161 -203 -150 -179T-125 -145Q-107 -194 -74 -221T0 -249Q77 -249 133 -193Q168 -158 198
-85T286 182Q271 163 219 110Q174 64 125 31T42 -2Q21 -2 21 43Q21 96 48 155T119 258Q175 313 231 337T377 361ZM259 320Q218 320 183 285Q150 252 128 196T106 107Q106 75 121 75Q133 75 157 87T208 127Q310 229 324 308Q290 320 259 320Z" />
<glyph unicode="h" glyph-name="h" horiz-adv-x="464" d="M333 159Q369 265 369 280Q369 300 355 300Q337 300 294 277T211 212Q158 158 121 37Q98 18 68 7T24 -4Q56 106 127 319Q202 548 254 630Q266 639 291 648T331 658Q291 587 222 385Q205 335 160 191Q237
268 321 318T444 369Q461 369 461 347Q461 319 428 227T395 104Q395 76 411 69Q393 49 352 24T294 -2Q294 46 333 159Z" />
<glyph unicode="i" glyph-name="i" horiz-adv-x="190" d="M249 532Q279 532 279 498Q279 475 262 456T224 436Q194 436 194 470Q194 496 210 514T249 532ZM119 307Q136 320 166 334T210 348Q127 173 127 59Q110 41 78 21T30 0Q30 47 61 146T119 307Z" />
<glyph unicode="j" glyph-name="j" horiz-adv-x="199" d="M240 532Q253 532 262 524T271 498Q271 474 254 454T215 433Q201 433 193 443T184 469Q184 494 202 513T240 532ZM-206 -280Q-246 -280 -273 -265T-309 -227Q-309 -186 -275 -152Q-261 -192 -231 -219T-167
-247Q-145 -247 -127 -240T-83 -210T-29 -130T29 14Q79 161 119 308Q136 322 168 337T214 352Q122 64 105 20Q53 -117 -32 -198T-206 -280Z" />
<glyph unicode="k" glyph-name="k" horiz-adv-x="437" d="M122 316Q184 499 250 630Q263 640 289 649T333 659Q276 558 218 386Q169 237 157 193L392 360Q416 360 436 352T460 336Q326 290 228 212Q279 144 334 86Q388 31 434 31Q418 17 389 5T332 -8T272 27Q241
59 152 174Q149 161 136 111T117 36Q100 21 68 9T19 -3Q76 182 122 316Z" />
<glyph unicode="l" glyph-name="l" horiz-adv-x="201" d="M183 267Q138 120 122 31Q101 12 71 2T25 -9Q62 136 126 320Q201 536 259 630Q274 641 298 650T336 660Q263 527 183 267Z" />
<glyph unicode="m" glyph-name="m" horiz-adv-x="664" d="M529 162Q557 247 557 262Q557 274 544 274Q532 274 498 251T427 193Q372 139 349 54Q333 37 302 23T258 9Q322 208 322 252Q322 274 310 274Q284 274 235 225Q167 157 132 61Q109 40 79 24T36 8Q99 194
107 300Q119 316 151 335T199 354Q199 296 169 187Q325 345 404 345Q418 345 418 324Q418 288 389 187Q433 231 520 291T642 352Q654 352 657 349T661 336Q661 324 622 219Q592 140 592 105Q592 76 608 70Q585 42 549 21T491 0Q491 47 529 162Z" />
<glyph unicode="n" glyph-name="n" horiz-adv-x="447" d="M427 345Q441 345 441 320Q441 285 413 192T362 45Q357 35 320 15T267 -6Q351 232 351 262Q351 274 336 274Q322 274 288 252T210 185Q170 145 127 59Q110 42 77 25T29 8Q97 183 105 289Q122 311 158 335T211
359Q197 275 165 174Q217 229 309 287T427 345Z" />
<glyph unicode="o" glyph-name="o" horiz-adv-x="363" d="M248 313Q210 313 165 268Q139 242 125 201T110 124Q110 53 157 53Q207 53 251 114T295 256Q295 313 248 313ZM372 295Q372 195 268 92Q223 48 167 21T75 -7Q26 -7 26 55Q26 104 49 157T109 247Q161 299
218 328T320 358Q372 358 372 295Z" />
<glyph unicode="p" glyph-name="p" horiz-adv-x="419" d="M264 64Q295 95 314 152T334 256Q334 294 311 294Q263 294 195 227Q167 200 149 160T108 44Q129 28 175 28Q195 28 222 38T264 64ZM225 384Q220 370 212 346T195 298T178 242Q326 359 386 359Q402 359
411 345T421 306Q421 242 395 184T328 85Q282 40 220 13T109 -15Q99 -15 89 -13Q17 -217 -9 -247Q-26 -267 -52 -282T-99 -298Q-71 -252 -45 -185T29 29Q119 304 129 338Q141 354 174 369T225 384Z" />
<glyph unicode="q" glyph-name="q" horiz-adv-x="413" d="M193 277Q160 245 136 189T111 99Q111 76 130 76Q140 76 169 93T226 138Q324 234 345 303Q324 312 284 312Q231 312 193 277ZM300 182Q278 157 215 103Q96 0 42 0Q22 0 22 39Q22 81 48 139T114 238Q171
296 234 323T391 350Q406 350 440 346Q361 175 316 44Q246 -166 246 -242Q239 -253 208 -271T156 -290Q156 -227 206 -74Q264 101 300 182Z" />
<glyph unicode="r" glyph-name="r" horiz-adv-x="320" d="M338 272H317Q268 272 221 227Q159 165 107 34Q67 0 20 0Q94 174 110 298Q120 311 156 329T206 347Q206 330 194 282T165 195Q236 272 281 308T365 344Q380 344 388 340Q387 330 371 307T338 272Z" />
<glyph unicode="s" glyph-name="s" horiz-adv-x="344" d="M172 280Q172 263 185 250T239 215Q282 192 302 174T322 127Q322 101 298 77Q262 41 205 18T96 -5Q49 -5 23 14T-4 61Q2 78 16 95T45 116Q54 74 79 48T141 22Q185 22 212 48Q236 71 236 94Q236 127 167
164Q122 188 106 205T90 245Q90 265 109 284Q138 313 195 336T319 359Q348 359 368 350Q368 340 353 325T325 303Q296 328 257 328Q208 328 184 304Q172 292 172 280Z" />
<glyph unicode="t" glyph-name="t" horiz-adv-x="311" d="M94 -2Q55 -2 55 63Q55 138 121 292Q105 292 51 290Q51 297 70 312T110 337Q116 337 142 339Q199 463 235 522Q279 551 315 551Q256 447 214 340Q233 341 267 342T326 345T363 348Q351 332 305 311Q283
301 196 297Q142 157 142 101Q142 74 148 63T173 51Q201 51 246 76T328 145Q328 122 322 106Q287 74 214 36T94 -2Z" />
<glyph unicode="u" glyph-name="u" horiz-adv-x="458" d="M59 0Q38 0 38 29Q38 89 75 185Q102 254 133 310Q154 326 180 337T222 349Q132 177 132 108Q132 88 152 88Q185 88 276 177Q336 237 381 315Q397 328 426 338T468 349Q437 282 420 215T402 108Q402 88
407 75Q401 62 372 38T307 4Q307 88 344 215Q126 0 59 0Z" />
<glyph unicode="v" glyph-name="v" horiz-adv-x="357" d="M73 300Q82 314 107 329T151 344Q169 242 167 108Q220 179 269 230Q347 310 399 339Q432 344 453 334Q374 295 300 215Q215 122 168 26Q130 -3 89 -3Q94 211 73 300Z" />
<glyph unicode="w" glyph-name="w" horiz-adv-x="597" d="M125 298Q141 313 166 325T214 338Q134 189 134 105Q134 83 148 83Q161 83 191 103T256 160Q301 209 349 306Q407 343 439 343Q353 176 353 101Q353 72 375 72Q390 72 416 86T464 123T513 205T545 300Q559
315 590 330T640 345Q629 301 593 246T504 137Q435 66 378 35T284 3Q275 3 269 13T263 38Q263 104 284 158Q240 114 162 57T62 -1Q44 -1 44 23Q44 146 125 298Z" />
<glyph unicode="x" glyph-name="x" horiz-adv-x="374" d="M163 177Q117 284 85 308Q99 323 121 337T159 351Q183 341 226 235Q305 308 384 357Q428 357 446 348Q340 300 237 210Q264 143 291 95T335 36Q299 0 258 0Q234 11 175 153Q64 35 32 -62Q16 -74 -10 -84T-59
-93Q-5 13 163 177Z" />
<glyph unicode="y" glyph-name="y" horiz-adv-x="420" d="M20 -250Q90 -250 136 -209Q165 -182 184 -155T234 -46T308 181Q247 117 171 59T60 0Q38 0 38 43Q38 90 69 177T125 313Q139 324 168 335T213 347Q126 168 126 107Q126 76 139 76Q154 76 184 96T245 146Q295
196 315 230T355 323Q411 356 445 357Q417 297 383 180Q339 29 305 -46T224 -169Q109 -283 -22 -283Q-73 -283 -104 -264T-142 -221Q-142 -206 -132 -182T-106 -147Q-92 -190 -58 -220T20 -250Z" />
<glyph unicode="z" glyph-name="z" horiz-adv-x="385" d="M71 265Q71 273 88 297T118 331Q144 342 189 342Q211 342 244 340T293 337Q355 337 381 349Q381 333 367 317Q259 197 95 69Q114 71 169 67T265 63Q330 63 371 86Q371 74 354 47T320 12Q291 0 240 0Q211
0 150 4T69 8Q17 8 -13 0Q-13 8 -4 20T12 38Q210 186 266 284Q256 283 226 285T171 288Q119 288 71 265Z" />
<glyph unicode="{" glyph-name="braceleft" horiz-adv-x="347" d="M214 169Q214 132 170 32T126 -102Q126 -135 151 -150T214 -161Q215 -168 187 -178T130 -188Q94 -188 72 -172T50 -126Q50 -69 99 37Q147 145 147 176Q147 227 83 225Q83 230 87 238T95 247Q151
247 181 281Q210 313 227 379T260 509T306 604Q339 640 402 640Q421 640 442 635T464 624Q431 621 394 597Q365 578 346 532T319 440T293 344T251 269Q222 240 157 237Q153 237 152 233T153 229Q214 223 214 169Z" />
<glyph unicode="|" glyph-name="bar" horiz-adv-x="264" d="M369 750L21 -250H-38L310 750H369Z" />
<glyph unicode="}" glyph-name="braceright" horiz-adv-x="347" d="M357 575Q357 520 309 412T261 273Q261 222 325 224Q325 219 321 211T313 202Q259 202 226 163Q188 117 164 -3Q156 -42 151 -63T134 -113T106 -157Q74 -191 16 -191Q-38 -191 -54 -179L-60 -175Q-12
-173 29 -142Q54 -123 69 -79T91 10T114 104T157 180Q186 209 251 212Q255 212 256 216T255 220Q194 226 194 280Q194 317 238 417Q282 519 282 551Q282 584 259 599T196 610Q203 619 230 627T282 635Q316 635 336 620T357 575Z" />
<glyph unicode="~" glyph-name="asciitilde" horiz-adv-x="478" d="M99 261Q178 367 229 367Q245 367 260 362T285 349T309 334Q356 306 378 306Q395 306 414 321T444 359Q462 359 470 350Q406 242 341 242Q317 242 269 271Q214 303 200 303Q162 303 122 246Q109
246 99 261Z" />
</font>
</defs>
</svg>
